<svg xmlns="http://www.w3.org/2000/svg" viewBox="0 0 900 520" role="img" aria-label="Laundry machines with folded clothes">
  <defs>
    <linearGradient id="room" x1="0" x2="1" y1="0" y2="1">
      <stop offset="0" stop-color="#eef8fb"/>
      <stop offset="1" stop-color="#c8dce7"/>
    </linearGradient>
    <linearGradient id="metal" x1="0" x2="0" y1="0" y2="1">
      <stop offset="0" stop-color="#f8fbfc"/>
      <stop offset="1" stop-color="#d8e4eb"/>
    </linearGradient>
    <linearGradient id="glass" x1="0" x2="1" y1="0" y2="1">
      <stop offset="0" stop-color="#293e4b"/>
      <stop offset="0.52" stop-color="#476678"/>
      <stop offset="1" stop-color="#172a35"/>
    </linearGradient>
    <filter id="shadow" x="-20%" y="-20%" width="140%" height="150%">
      <feDropShadow dx="0" dy="18" stdDeviation="18" flood-color="#244758" flood-opacity=".22"/>
    </filter>
  </defs>

  <rect width="900" height="520" rx="18" fill="url(#room)"/>
  <path d="M0 92h900" stroke="#d7e8ef" stroke-width="4"/>
  <path d="M0 426h900" stroke="#bfd6e0" stroke-width="4"/>
  <rect x="42" y="72" width="816" height="318" rx="16" fill="#edf6fa" stroke="#bfd4dd" stroke-width="3" filter="url(#shadow)"/>

  <g transform="translate(70 112)">
    <g>
      <rect width="178" height="268" rx="12" fill="url(#metal)" stroke="#aebfca" stroke-width="3"/>
      <rect x="16" y="16" width="146" height="34" rx="7" fill="#d2e1e8"/>
      <circle cx="130" cy="33" r="6" fill="#8aa0ad"/>
      <circle cx="148" cy="33" r="6" fill="#8aa0ad"/>
      <circle cx="89" cy="162" r="64" fill="#9fb2bf"/>
      <circle cx="89" cy="162" r="49" fill="url(#glass)"/>
      <path d="M52 170c30-24 52 18 82-7" fill="none" stroke="#86aeca" stroke-width="12" stroke-linecap="round" opacity=".72"/>
      <rect x="20" y="224" width="138" height="16" rx="8" fill="#c6d6df"/>
    </g>

    <g transform="translate(194)">
      <rect width="178" height="268" rx="12" fill="url(#metal)" stroke="#aebfca" stroke-width="3"/>
      <rect x="16" y="16" width="146" height="34" rx="7" fill="#d2e1e8"/>
      <circle cx="130" cy="33" r="6" fill="#8aa0ad"/>
      <circle cx="148" cy="33" r="6" fill="#8aa0ad"/>
      <circle cx="89" cy="162" r="64" fill="#9fb2bf"/>
      <circle cx="89" cy="162" r="49" fill="url(#glass)"/>
      <path d="M51 158c33 18 51-18 80 7" fill="none" stroke="#92c0dc" stroke-width="12" stroke-linecap="round" opacity=".68"/>
      <rect x="20" y="224" width="138" height="16" rx="8" fill="#c6d6df"/>
    </g>

    <g transform="translate(388)">
      <rect width="178" height="268" rx="12" fill="url(#metal)" stroke="#aebfca" stroke-width="3"/>
      <rect x="16" y="16" width="146" height="34" rx="7" fill="#d2e1e8"/>
      <circle cx="130" cy="33" r="6" fill="#8aa0ad"/>
      <circle cx="148" cy="33" r="6" fill="#8aa0ad"/>
      <circle cx="89" cy="162" r="64" fill="#9fb2bf"/>
      <circle cx="89" cy="162" r="49" fill="url(#glass)"/>
      <path d="M48 166c32-22 52 18 85-8" fill="none" stroke="#88b4cf" stroke-width="12" stroke-linecap="round" opacity=".7"/>
      <rect x="20" y="224" width="138" height="16" rx="8" fill="#c6d6df"/>
    </g>

    <g transform="translate(582)">
      <rect width="178" height="268" rx="12" fill="url(#metal)" stroke="#aebfca" stroke-width="3"/>
      <rect x="16" y="16" width="146" height="34" rx="7" fill="#d2e1e8"/>
      <circle cx="130" cy="33" r="6" fill="#8aa0ad"/>
      <circle cx="148" cy="33" r="6" fill="#8aa0ad"/>
      <circle cx="89" cy="162" r="64" fill="#9fb2bf"/>
      <circle cx="89" cy="162" r="49" fill="url(#glass)"/>
      <path d="M50 156c36 24 54-20 84 10" fill="none" stroke="#8bbad8" stroke-width="12" stroke-linecap="round" opacity=".72"/>
      <rect x="20" y="224" width="138" height="16" rx="8" fill="#c6d6df"/>
    </g>
  </g>

  <g transform="translate(244 56)">
    <rect x="0" y="44" width="108" height="22" rx="11" fill="#ffffff"/>
    <rect x="18" y="22" width="108" height="22" rx="11" fill="#dbeaff"/>
    <rect x="36" y="0" width="108" height="22" rx="11" fill="#ffffff"/>
    <rect x="440" y="42" width="112" height="22" rx="11" fill="#ffffff"/>
    <rect x="424" y="20" width="112" height="22" rx="11" fill="#dbeaff"/>
    <rect x="408" y="-2" width="112" height="22" rx="11" fill="#ffffff"/>
  </g>

  <g transform="translate(392 76)">
    <path d="M39 0h62l24 266H15z" fill="#f7fbfd" stroke="#bdd0db" stroke-width="3"/>
    <path d="M60 0v266" stroke="#d7e3ea" stroke-width="3"/>
    <path d="M86 0v266" stroke="#d7e3ea" stroke-width="3"/>
  </g>
</svg>
